<svg width="40" height="40" viewBox="0 0 40 40" fill="none" xmlns="http://www.w3.org/2000/svg">
<circle cx="19.9951" cy="19.9951" r="16.665" fill="url(#paint0_radial_2094_6427)"/>
<path d="M20 24.8461C17.3284 24.8461 15.1539 22.6723 15.1539 20C15.1539 17.3277 17.3284 15.1538 20 15.1538C22.6716 15.1538 24.8462 17.3277 24.8462 20C24.8462 22.6723 22.6716 24.8461 20 24.8461ZM20 16.5384C18.0913 16.5384 16.5385 18.0913 16.5385 20C16.5385 21.9087 18.0913 23.4615 20 23.4615C21.9087 23.4615 23.4616 21.9087 23.4616 20C23.4616 18.0913 21.9087 16.5384 20 16.5384Z" fill="white"/>
<path d="M25.1923 15.8465C25.7658 15.8465 26.2307 15.3815 26.2307 14.808C26.2307 14.2345 25.7658 13.7695 25.1923 13.7695C24.6187 13.7695 24.1538 14.2345 24.1538 14.808C24.1538 15.3815 24.6187 15.8465 25.1923 15.8465Z" fill="white"/>
<path d="M24.1538 29H15.8462C13.1745 29 11 26.8262 11 24.1538V15.8462C11 13.1738 13.1745 11 15.8462 11H24.1538C26.8255 11 29 13.1738 29 15.8462V24.1538C29 26.8262 26.8255 29 24.1538 29ZM15.8462 12.3846C13.9375 12.3846 12.3846 13.9375 12.3846 15.8462V24.1538C12.3846 26.0625 13.9375 27.6154 15.8462 27.6154H24.1538C26.0625 27.6154 27.6154 26.0625 27.6154 24.1538V15.8462C27.6154 13.9375 26.0625 12.3846 24.1538 12.3846H15.8462Z" fill="white"/>
<defs>
<radialGradient id="paint0_radial_2094_6427" cx="0" cy="0" r="1" gradientUnits="userSpaceOnUse" gradientTransform="translate(15.7204 36.6841) scale(41.5471)">
<stop stop-color="#FFDD55"/>
<stop offset="0.328" stop-color="#FF543F"/>
<stop offset="0.348" stop-color="#FC5245"/>
<stop offset="0.504" stop-color="#E64771"/>
<stop offset="0.643" stop-color="#D53E91"/>
<stop offset="0.761" stop-color="#CC39A4"/>
<stop offset="0.841" stop-color="#C837AB"/>
</radialGradient>
</defs>
</svg>
