<svg width="40" height="40" viewBox="0 0 40 40" fill="none" xmlns="http://www.w3.org/2000/svg">
<path d="M20 3.3335C15.5797 3.3335 11.3405 5.08944 8.21487 8.21505C5.08926 11.3407 3.33331 15.5799 3.33331 20.0002C3.33331 24.4204 5.08926 28.6597 8.21487 31.7853C11.3405 34.9109 15.5797 36.6668 20 36.6668C24.4203 36.6668 28.6595 34.9109 31.7851 31.7853C34.9107 28.6597 36.6666 24.4204 36.6666 20.0002C36.6666 15.5799 34.9107 11.3407 31.7851 8.21505C28.6595 5.08944 24.4203 3.3335 20 3.3335Z" fill="#0288D1"/>
<path d="M11.6667 15.8335H15V28.3335H11.6667V15.8335ZM13.3234 14.1668H13.305C12.31 14.1668 11.6667 13.4252 11.6667 12.4993C11.6667 11.5535 12.33 10.8335 13.3425 10.8335C14.3567 10.8335 14.9809 11.5535 15 12.4993C15 13.4252 14.3567 14.1668 13.3234 14.1668ZM29.1667 20.4168C29.1667 17.8852 27.115 15.8335 24.5834 15.8335C23.0317 15.8335 21.6625 16.6068 20.8334 17.7868V15.8335H17.5V28.3335H20.8334V21.6668C20.8334 20.286 21.9525 19.1668 23.3334 19.1668C24.7142 19.1668 25.8334 20.286 25.8334 21.6668V28.3335H29.1667C29.1667 28.3335 29.1667 20.7677 29.1667 20.4168Z" fill="white"/>
</svg>
