<svg width="40" height="40" viewBox="0 0 40 40" fill="none" xmlns="http://www.w3.org/2000/svg">
<path d="M20 3.3335C15.5797 3.3335 11.3405 5.08944 8.21487 8.21505C5.08926 11.3407 3.33331 15.5799 3.33331 20.0002C3.33331 24.4204 5.08926 28.6597 8.21487 31.7853C11.3405 34.9109 15.5797 36.6668 20 36.6668C24.4203 36.6668 28.6595 34.9109 31.7851 31.7853C34.9107 28.6597 36.6666 24.4204 36.6666 20.0002C36.6666 15.5799 34.9107 11.3407 31.7851 8.21505C28.6595 5.08944 24.4203 3.3335 20 3.3335Z" fill="#448AFF"/>
<path d="M19.85 11C15.125 11 11.3 14.645 11.3 19.1C11.3 21.44 12.335 23.51 14 24.995V29L17.51 26.885C18.23 27.065 19.04 27.2 19.85 27.2C24.575 27.2 28.4 23.555 28.4 19.1C28.4 14.645 24.575 11 19.85 11Z" fill="white"/>
<path d="M14.45 21.8001L18.95 16.8501L21.2 19.1001L25.25 16.8501L20.75 21.8001L18.5 19.5501L14.45 21.8001Z" fill="#448AFF"/>
</svg>
