<svg width="40" height="40" viewBox="0 0 40 40" fill="none" xmlns="http://www.w3.org/2000/svg">
<path d="M20 3.3335C15.5797 3.3335 11.3405 5.08944 8.21487 8.21505C5.08926 11.3407 3.33331 15.5799 3.33331 20.0002C3.33331 24.4204 5.08926 28.6597 8.21487 31.7853C11.3405 34.9109 15.5797 36.6668 20 36.6668C24.4203 36.6668 28.6595 34.9109 31.7851 31.7853C34.9107 28.6597 36.6666 24.4204 36.6666 20.0002C36.6666 15.5799 34.9107 11.3407 31.7851 8.21505C28.6595 5.08944 24.4203 3.3335 20 3.3335Z" fill="#29B6F6"/>
<path d="M27.9625 12.75L25.153 27.0945C25.153 27.0945 25.0322 27.75 24.2192 27.75C23.7872 27.75 23.5645 27.5445 23.5645 27.5445L17.479 22.4948L14.5015 20.994L10.6802 19.9778C10.6802 19.9778 10 19.7813 10 19.2188C10 18.75 10.6997 18.5265 10.6997 18.5265L26.6868 12.1755C26.686 12.1748 27.175 11.9993 27.5312 12C27.7502 12 28 12.0938 28 12.375C28 12.5625 27.9625 12.75 27.9625 12.75Z" fill="white"/>
<path d="M19.75 24.3787L17.1805 26.9092C17.1805 26.9092 17.0687 26.9954 16.9195 26.9992C16.8677 27.0007 16.8122 26.9924 16.7552 26.9669L17.4782 22.4932L19.75 24.3787Z" fill="#B0BEC5"/>
<path d="M24.9227 15.1469C24.796 14.9819 24.562 14.9519 24.397 15.0772L14.5 20.9999C14.5 20.9999 16.0795 25.4189 16.3202 26.1839C16.5617 26.9497 16.7552 26.9677 16.7552 26.9677L17.4783 22.4939L24.8522 15.6719C25.0172 15.5467 25.048 15.3119 24.9227 15.1469Z" fill="#CFD8DC"/>
</svg>
