<svg width="40" height="40" viewBox="0 0 40 40" fill="none" xmlns="http://www.w3.org/2000/svg">
<circle cx="19.9951" cy="19.9951" r="16.665" fill="#484848"/>
<path fill-rule="evenodd" clip-rule="evenodd" d="M23.8054 17.4987C24.9676 18.3291 26.3917 18.8173 27.9293 18.8173V15.8593C27.638 15.8593 27.3481 15.8291 27.0635 15.7686V18.0968C25.5259 18.0968 24.1026 17.6079 22.9396 16.7782V22.8136C22.9396 25.8328 20.4905 28.2804 17.4698 28.2804C16.343 28.2804 15.2951 27.9397 14.4249 27.3556C15.4182 28.3704 16.8032 29.0002 18.3356 29.0002C21.3563 29.0002 23.8054 26.5525 23.8054 23.5334V17.4987ZM24.874 14.5149C24.2803 13.8667 23.8902 13.0282 23.8054 12.1012V11.7207H22.9846C23.1911 12.8984 23.8961 13.9051 24.874 14.5149ZM16.3356 25.0393C16.0038 24.6042 15.8246 24.0724 15.8253 23.5253C15.8253 22.144 16.9455 21.0245 18.3275 21.0245C18.5849 21.0245 18.8408 21.0636 19.0864 21.1418V18.1182C18.7995 18.0791 18.5104 18.0621 18.2206 18.068V20.4213C17.975 20.3431 17.7191 20.304 17.461 20.304C16.079 20.304 14.9588 21.4235 14.9588 22.8048C14.9595 23.7819 15.5193 24.6278 16.3356 25.0393Z" fill="#EC407A"/>
<path fill-rule="evenodd" clip-rule="evenodd" d="M22.9395 16.7782C24.1017 17.6086 25.5258 18.0968 27.0634 18.0968V15.7686C26.205 15.5857 25.4454 15.1374 24.8739 14.5142C23.896 13.9043 23.1917 12.8984 22.9852 11.7207H20.8296V23.5334C20.8245 24.9102 19.7065 26.0252 18.3274 26.0252C17.5147 26.0252 16.7928 25.6381 16.3355 25.0385C15.5192 24.627 14.9594 23.7811 14.9594 22.8048C14.9594 21.4235 16.0796 20.304 17.4616 20.304C17.7264 20.304 17.9815 20.3453 18.2212 20.4213V18.0688C15.2537 18.13 12.8672 20.5533 12.8672 23.5341C12.8672 25.0223 13.4616 26.3711 14.4262 27.3564C15.2964 27.9404 16.3444 28.2811 17.4712 28.2811C20.4919 28.2811 22.941 25.8335 22.941 22.8143L22.9395 16.7782Z" fill="white"/>
<path fill-rule="evenodd" clip-rule="evenodd" d="M27.0634 15.7692V15.1394C26.2891 15.1408 25.5309 14.924 24.8739 14.514C25.455 15.1504 26.2205 15.5892 27.0634 15.7692ZM22.9845 11.7205C22.9646 11.6077 22.9498 11.4948 22.9395 11.3805V11H19.9631V22.8134C19.9587 24.1902 18.84 25.3053 17.4609 25.3053C17.056 25.3053 16.674 25.2094 16.3355 25.0383C16.7928 25.6379 17.5147 26.025 18.3274 26.025C19.7065 26.025 20.8245 24.91 20.8296 23.5332V11.7205H22.9845ZM18.2205 18.0686V17.3982C17.972 17.3643 17.7212 17.3473 17.4698 17.3473C14.4484 17.3473 12 19.795 12 22.8141C12 24.7072 12.9624 26.3753 14.4248 27.3562C13.4602 26.3709 12.8658 25.0221 12.8658 23.5339C12.8658 20.5531 15.2529 18.1298 18.2205 18.0686Z" fill="#81D4FA"/>
</svg>
