<svg width="40" height="40" viewBox="0 0 40 40" fill="none" xmlns="http://www.w3.org/2000/svg">
<circle cx="19.9951" cy="19.9951" r="16.665" fill="#40C351"/>
<path fill-rule="evenodd" clip-rule="evenodd" d="M10.4965 29.5031L11.8334 24.6227C11.0086 23.1946 10.5749 21.5739 10.5754 19.914C10.5779 14.721 14.8038 10.4961 19.9973 10.4961C22.5177 10.4971 24.8827 11.4781 26.6617 13.2581C28.4401 15.0386 29.4197 17.4046 29.4187 19.9215C29.4167 25.1145 25.1899 29.3399 19.9973 29.3399C19.9968 29.3399 19.9973 29.3399 19.9973 29.3399H19.9933C18.4168 29.3394 16.8671 28.9439 15.4911 28.1931L10.4965 29.5031Z" fill="white"/>
<path fill-rule="evenodd" clip-rule="evenodd" d="M10.4964 29.7513C10.4309 29.7513 10.3674 29.7255 10.3203 29.6779C10.2582 29.6149 10.2339 29.5231 10.2573 29.4382L11.5668 24.6565C10.755 23.2145 10.3267 21.5769 10.3277 19.9146C10.3297 14.5841 14.6672 10.248 19.9972 10.248C22.5826 10.249 25.0116 11.2559 26.8372 13.083C28.6629 14.9106 29.6677 17.3392 29.6667 19.9215C29.6648 25.2515 25.3267 29.5881 19.9972 29.5881C18.4148 29.5876 16.8492 29.197 15.4597 28.4581L10.5595 29.7429C10.5386 29.7488 10.5178 29.7513 10.4964 29.7513Z" fill="white"/>
<path fill-rule="evenodd" clip-rule="evenodd" d="M25.5364 14.3825C24.0576 12.9027 22.0921 12.0874 20 12.0869C15.6808 12.0869 12.168 15.5982 12.166 19.9144C12.1655 21.3937 12.5794 22.8337 13.3634 24.0808L13.55 24.377L12.7585 27.2656L15.7225 26.4885L16.0088 26.6582C17.2107 27.3717 18.5892 27.7489 19.9945 27.7494H19.9975C24.3137 27.7494 27.8265 24.2376 27.828 19.9209C27.8285 17.8293 27.0152 15.8622 25.5364 14.3825Z" fill="#40C351"/>
<path fill-rule="evenodd" clip-rule="evenodd" d="M17.6419 15.9768C17.4658 15.5848 17.2802 15.5769 17.112 15.5699C16.9745 15.564 16.8177 15.5645 16.6609 15.5645C16.5041 15.5645 16.249 15.6235 16.0332 15.8592C15.8173 16.0949 15.2089 16.6641 15.2089 17.8223C15.2089 18.9805 16.0525 20.1 16.1701 20.2568C16.2877 20.4136 17.7987 22.8665 20.1916 23.8103C22.1799 24.5943 22.5849 24.4385 23.0166 24.3993C23.4483 24.3601 24.4095 23.8301 24.6055 23.2803C24.8015 22.7305 24.8015 22.2596 24.743 22.1613C24.6839 22.0631 24.5271 22.0045 24.2919 21.8864C24.0567 21.7683 22.899 21.1991 22.6831 21.1207C22.4673 21.0423 22.3105 21.0031 22.1531 21.2388C21.9963 21.4741 21.5453 22.0045 21.4078 22.1613C21.2704 22.3186 21.1329 22.3385 20.8977 22.2204C20.6625 22.1023 19.9042 21.8542 19.0046 21.0523C18.3049 20.4285 17.8325 19.6579 17.695 19.4221C17.5576 19.1869 17.6801 19.0594 17.7982 18.9418C17.9039 18.8361 18.0335 18.6669 18.1516 18.5294C18.2692 18.392 18.3084 18.2937 18.3868 18.1369C18.4652 17.9796 18.426 17.8422 18.3669 17.7245C18.3089 17.6064 17.8513 16.4423 17.6419 15.9768Z" fill="white"/>
</svg>
