<svg width="40" height="40" viewBox="0 0 40 40" fill="none" xmlns="http://www.w3.org/2000/svg">
<path d="M20 3.3335C15.5797 3.3335 11.3405 5.08944 8.2149 8.21505C5.08929 11.3407 3.33334 15.5799 3.33334 20.0002C3.33334 24.4204 5.08929 28.6597 8.2149 31.7853C11.3405 34.9109 15.5797 36.6668 20 36.6668C24.4203 36.6668 28.6595 34.9109 31.7851 31.7853C34.9107 28.6597 36.6667 24.4204 36.6667 20.0002C36.6667 15.5799 34.9107 11.3407 31.7851 8.21505C28.6595 5.08944 24.4203 3.3335 20 3.3335Z" fill="#FF3D00"/>
<path d="M29.6 24.95C29.4 26 28.55 26.8 27.5 26.95C25.85 27.2 23.1 27.5 20 27.5C16.95 27.5 14.2 27.2 12.5 26.95C11.45 26.8 10.6 26 10.4 24.95C10.2 23.8 10 22.1 10 20C10 17.9 10.2 16.2 10.4 15.05C10.6 14 11.45 13.2 12.5 13.05C14.15 12.8 16.9 12.5 20 12.5C23.1 12.5 25.8 12.8 27.5 13.05C28.55 13.2 29.4 14 29.6 15.05C29.8 16.2 30.05 17.9 30.05 20C30 22.1 29.8 23.8 29.6 24.95Z" fill="white"/>
<path d="M18 23.5V16.5L24 20L18 23.5Z" fill="#FF3D00"/>
</svg>
