<svg width="59" height="58" viewBox="0 0 59 58" fill="none" xmlns="http://www.w3.org/2000/svg">
<path d="M26.1807 30.0691H32.5096V32.1963H26.1807V30.0691Z" fill="#5D82D5"/>
<path d="M40.5529 32.2062H34.5728V33.2749C34.56 33.5486 34.4427 33.8066 34.2456 33.9946C34.0486 34.1826 33.7872 34.286 33.5164 34.2831H25.0845C24.8136 34.286 24.5522 34.1826 24.3552 33.9946C24.1582 33.8066 24.0409 33.5486 24.028 33.2749V32.2062H18.0479C17.3849 32.2023 16.7398 31.9881 16.2034 31.5939C15.667 31.1996 15.2664 30.6451 15.0579 30.0084L11.2705 18.5051V41.8041C11.2705 42.2246 11.3526 42.6411 11.512 43.0295C11.6714 43.4179 11.905 43.7706 12.1994 44.0675C12.4939 44.3644 12.8433 44.5996 13.2278 44.7596C13.6123 44.9197 14.0242 45.0013 14.4399 45H44.1011C44.5168 45.0013 44.9287 44.9197 45.3132 44.7596C45.6977 44.5996 46.0472 44.3644 46.3416 44.0675C46.636 43.7706 46.8697 43.4179 47.0291 43.0295C47.1885 42.6411 47.2705 42.2246 47.2705 41.8041V18.5051L43.4732 30.0084C43.2699 30.6347 42.8802 31.182 42.3574 31.5755C41.8346 31.9689 41.2043 32.1892 40.5529 32.2062V32.2062Z" fill="#5D82D5"/>
<path d="M33.5661 13.0006H25.1342C24.7184 12.9992 24.3065 13.0809 23.922 13.2409C23.5375 13.401 23.1881 13.6362 22.8936 13.9331C22.5992 14.23 22.3656 14.5827 22.2062 14.9711C22.0468 15.3595 21.9647 15.7759 21.9647 16.1965V17.2652H13.1641L17.1508 29.3633C17.221 29.5753 17.3546 29.76 17.5332 29.8919C17.7117 30.0237 17.9264 30.0962 18.1474 30.0992H24.0777V29.0003C24.0803 28.7177 24.1924 28.4474 24.39 28.2476C24.5876 28.0477 24.8548 27.9343 25.1342 27.9317H33.576C33.8562 27.9317 34.1249 28.0443 34.3231 28.2447C34.5212 28.4451 34.6325 28.7169 34.6325 29.0003V30.069H40.6126C40.8363 30.0774 41.0562 30.0093 41.237 29.8758C41.4178 29.7423 41.549 29.5511 41.6092 29.333L45.596 17.2349H36.7953V16.1965C36.794 15.7712 36.7092 15.3504 36.5456 14.9586C36.382 14.5668 36.1429 14.2118 35.8424 13.9144C35.5419 13.6169 35.1858 13.383 34.795 13.2261C34.4042 13.0692 33.9864 12.9925 33.5661 13.0006V13.0006ZM24.0777 17.2652V16.1965C24.0777 15.9131 24.189 15.6412 24.3871 15.4408C24.5852 15.2404 24.854 15.1278 25.1342 15.1278H33.5661C33.8462 15.1278 34.115 15.2404 34.3131 15.4408C34.5112 15.6412 34.6225 15.9131 34.6225 16.1965V17.2652H24.0777Z" fill="#5D82D5"/>
</svg>
