<svg width="58" height="58" viewBox="0 0 58 58" fill="none" xmlns="http://www.w3.org/2000/svg">
<path d="M28.5 48C38.7173 48 47 39.7173 47 29.5C47 19.2827 38.7173 11 28.5 11C18.2827 11 10 19.2827 10 29.5C10 39.7173 18.2827 48 28.5 48Z" fill="#5D82D5"/>
<path d="M32.7798 27.6298L32.4998 30.0898C32.4875 30.2029 32.4336 30.3075 32.3486 30.3832C32.2637 30.4589 32.1537 30.5004 32.0398 30.4998H29.4698V37.7997C29.47 37.8866 29.4369 37.9702 29.3774 38.0334C29.3179 38.0966 29.2365 38.1347 29.1498 38.1398H26.5499C26.5078 38.1398 26.4662 38.1315 26.4274 38.1154C26.3886 38.0993 26.3533 38.0757 26.3236 38.046C26.2939 38.0163 26.2703 37.981 26.2542 37.9422C26.2381 37.9034 26.2298 37.8618 26.2298 37.8198V30.4998H24.2999C24.1779 30.4998 24.0608 30.4513 23.9746 30.3651C23.8883 30.2788 23.8398 30.1617 23.8398 30.0397V30.0397V27.5698C23.8398 27.4478 23.8883 27.3308 23.9746 27.2445C24.0608 27.1582 24.1779 27.1097 24.2999 27.1097H26.2399V24.7297C26.2399 21.9697 27.8699 20.4697 30.2399 20.4697H32.2399C32.3011 20.4697 32.3618 20.4819 32.4182 20.5057C32.4747 20.5294 32.5259 20.5643 32.5687 20.608C32.6116 20.6518 32.6452 20.7037 32.6677 20.7606C32.6903 20.8176 32.7012 20.8785 32.6998 20.9398V20.9398V22.9998C32.7012 23.0602 32.6906 23.1203 32.6687 23.1766C32.6468 23.2329 32.614 23.2844 32.5722 23.328C32.5304 23.3716 32.4805 23.4066 32.4251 23.431C32.3698 23.4553 32.3103 23.4684 32.2498 23.4697H30.9998C29.6898 23.4697 29.4398 24.1097 29.4398 25.0397V27.0997H32.2999C32.3611 27.0997 32.4218 27.1119 32.4782 27.1357C32.5347 27.1594 32.5859 27.1942 32.6287 27.238C32.6716 27.2818 32.7052 27.3337 32.7277 27.3906C32.7503 27.4476 32.7612 27.5085 32.7598 27.5698L32.7798 27.6298Z" fill="white"/>
</svg>
