<svg width="59" height="58" viewBox="0 0 59 58" fill="none" xmlns="http://www.w3.org/2000/svg">
<path d="M26.3715 27.8558C26.9964 28.3122 27.7482 28.5571 28.5194 28.5557H35.382V31.9166L39.7318 28.5557H41.6087C42.089 28.5562 42.5648 28.4612 43.0087 28.276C43.4527 28.0908 43.8563 27.8192 44.1963 27.4765C44.5363 27.1338 44.8062 26.7269 44.9905 26.2789C45.1748 25.8309 45.2699 25.3506 45.2705 24.8655V11.6882C45.2697 11.2029 45.1742 10.7225 44.9895 10.2745C44.8049 9.82643 44.5346 9.41953 44.1942 9.07703C43.8537 8.73452 43.4498 8.46311 43.0055 8.27832C42.5612 8.09352 42.0852 7.99895 41.6047 8.00001H28.5153C27.5454 7.99867 26.6146 8.38646 25.9278 9.0781C25.2409 9.76974 24.8541 10.7086 24.8525 11.6882V27.8558H26.3715Z" fill="#5D82D5"/>
<path d="M27.3785 37.3247V22.3629C27.3779 21.9327 27.2933 21.5068 27.1297 21.1096C26.9661 20.7123 26.7266 20.3515 26.4249 20.0478C26.1232 19.744 25.7653 19.5033 25.3715 19.3393C24.9776 19.1752 24.5557 19.0911 24.1297 19.0918H12.5193C12.0934 19.0911 11.6714 19.1752 11.2776 19.3393C10.8838 19.5033 10.5258 19.744 10.2241 20.0478C9.92246 20.3515 9.68296 20.7123 9.51934 21.1096C9.35572 21.5068 9.27116 21.9327 9.27051 22.3629V34.0526C9.27116 34.4828 9.35572 34.9087 9.51934 35.3059C9.68296 35.7031 9.92246 36.0639 10.2241 36.3677C10.5258 36.6714 10.8838 36.9122 11.2776 37.0762C11.6714 37.2402 12.0934 37.3243 12.5193 37.3237H18.897V40.3322L22.7558 37.3237L27.3785 37.3247Z" fill="#BFD5FF"/>
<path d="M22.5824 29.1697H20.2475L20.5035 27.6073H22.5824C22.7463 27.6008 22.9013 27.5304 23.015 27.4109C23.1286 27.2915 23.1921 27.1322 23.1921 26.9665C23.1921 26.8009 23.1286 26.6416 23.015 26.5222C22.9013 26.4027 22.7463 26.3323 22.5824 26.3258H20.7125L21.0614 24.1928C21.0789 24.0299 21.034 23.8664 20.9359 23.7359C20.8378 23.6054 20.6939 23.5178 20.5338 23.491C20.3738 23.4643 20.2096 23.5004 20.0751 23.5921C19.9406 23.6837 19.8459 23.8239 19.8105 23.9838L19.4275 26.3258H17.8976L18.2466 24.1928C18.2641 24.0299 18.2191 23.8664 18.121 23.7359C18.0229 23.6054 17.879 23.5178 17.719 23.491C17.5589 23.4643 17.3948 23.5004 17.2602 23.5921C17.1257 23.6837 17.0311 23.8239 16.9957 23.9838L16.6127 26.3258H14.0668C13.9029 26.3323 13.7479 26.4027 13.6342 26.5222C13.5205 26.6416 13.457 26.8009 13.457 26.9665C13.457 27.1322 13.5205 27.2915 13.6342 27.4109C13.7479 27.5304 13.9029 27.6008 14.0668 27.6073H16.4017L16.1457 29.1697H14.0668C13.9048 29.1789 13.7525 29.2503 13.641 29.3694C13.5296 29.4884 13.4675 29.6461 13.4675 29.8099C13.4675 29.9738 13.5296 30.1314 13.641 30.2505C13.7525 30.3696 13.9048 30.441 14.0668 30.4502H15.9367L15.5877 32.5832C15.5702 32.7461 15.6152 32.9096 15.7133 33.0401C15.8114 33.1706 15.9553 33.2582 16.1153 33.285C16.2754 33.3117 16.4396 33.2756 16.5741 33.1839C16.7086 33.0923 16.8033 32.9521 16.8387 32.7922L17.2216 30.4512H18.7516L18.4026 32.5842C18.3851 32.7471 18.43 32.9106 18.5281 33.0411C18.6262 33.1716 18.7701 33.2592 18.9302 33.286C19.0903 33.3127 19.2544 33.2766 19.3889 33.1849C19.5234 33.0933 19.6181 32.9531 19.6535 32.7932L20.0365 30.4512H22.5814C22.7433 30.442 22.8957 30.3706 23.0071 30.2515C23.1186 30.1324 23.1807 29.9748 23.1807 29.8109C23.1807 29.6471 23.1186 29.4895 23.0071 29.3704C22.8957 29.2513 22.7433 29.1799 22.5814 29.1707L22.5824 29.1697ZM18.9615 29.1697H17.4316L17.6876 27.6073H19.2215L18.9615 29.1697Z" fill="white"/>
<path d="M31.6345 34.1365H22.964C22.6458 34.1359 22.3306 34.1987 22.0365 34.3212C21.7423 34.4437 21.4749 34.6235 21.2496 34.8503C21.0242 35.0772 20.8453 35.3466 20.7231 35.6433C20.6008 35.94 20.5376 36.2581 20.5371 36.5795V45.3101C20.5376 45.6314 20.6008 45.9495 20.7231 46.2462C20.8453 46.5429 21.0242 46.8124 21.2496 47.0392C21.4749 47.2661 21.7423 47.4458 22.0365 47.5683C22.3306 47.6908 22.6458 47.7536 22.964 47.7531H27.7277V50.0001L30.6096 47.7531H31.6355C31.9537 47.7536 32.2689 47.6908 32.563 47.5683C32.8572 47.4458 33.1246 47.2661 33.3499 47.0392C33.5753 46.8124 33.7542 46.5429 33.8764 46.2462C33.9987 45.9495 34.0619 45.6314 34.0624 45.3101V36.5795C34.0619 36.258 33.9986 35.9398 33.8763 35.6431C33.754 35.3463 33.575 35.0768 33.3496 34.85C33.1241 34.6231 32.8566 34.4433 32.5623 34.3209C32.2681 34.1985 31.9528 34.1358 31.6345 34.1365V34.1365Z" fill="#5D82D5"/>
<path d="M35.061 23.2958C38.9258 21.2265 40.9277 19.4662 40.9277 16.7385C40.9277 12.9766 36.365 12.0364 35.061 14.858C33.5711 11.9424 29.1943 12.9776 29.1943 16.7385C29.1943 19.4662 31.1962 21.2265 35.061 23.2958Z" fill="white"/>
<path d="M26.0412 43.7002L26.2662 43.884C26.6223 44.1754 27.0668 44.3344 27.5251 44.3344H30.7149C30.787 44.3343 30.8582 44.3195 30.9244 44.2908C30.9905 44.2621 31.0503 44.2202 31.0999 44.1675C31.1496 44.1148 31.1881 44.0525 31.2132 43.9843C31.2383 43.9161 31.2494 43.8435 31.2459 43.7709C31.2329 43.482 31.2459 40.8502 31.2459 40.5533C31.2459 40.4108 31.1898 40.2741 31.0901 40.1734C30.9903 40.0726 30.855 40.016 30.7139 40.016L28.5511 40.0089L28.816 39.3757C28.9519 39.051 29.0118 38.699 28.9909 38.3471C28.9701 37.9952 28.8692 37.6529 28.696 37.3468C28.6558 37.2807 28.5956 37.2295 28.5242 37.2007C28.4529 37.172 28.3743 37.1672 28.3 37.1872C28.2258 37.2071 28.1599 37.2508 28.1122 37.3115C28.0645 37.3723 28.0374 37.447 28.0351 37.5246C28.0352 38.0924 27.83 38.6408 27.4581 39.0667L26.0752 40.6432H25.5752V43.7002H26.0412Z" fill="white"/>
<path d="M25.8262 44.1847H24.3693C24.3231 44.1847 24.2789 44.1662 24.2463 44.1332C24.2136 44.1003 24.1953 44.0556 24.1953 44.009V40.2602C24.1953 40.2136 24.2136 40.1689 24.2463 40.1359C24.2789 40.103 24.3231 40.0845 24.3693 40.0845H25.8252C25.8714 40.0845 25.9156 40.103 25.9482 40.1359C25.9809 40.1689 25.9992 40.2136 25.9992 40.2602V44.009C25.9992 44.0554 25.981 44.0999 25.9486 44.1329C25.9162 44.1658 25.8722 44.1844 25.8262 44.1847V44.1847Z" fill="white"/>
</svg>
