<svg width="58" height="58" viewBox="0 0 58 58" fill="none" xmlns="http://www.w3.org/2000/svg">
<path d="M48.32 14H9.68C7.64759 14 6 15.6686 6 17.7268V25.1805C6 27.2388 7.64759 28.9074 9.68 28.9074H48.32C50.3524 28.9074 52 27.2388 52 25.1805V17.7268C52 15.6686 50.3524 14 48.32 14Z" fill="#5D82D5"/>
<path d="M51.1718 40.2837L46.4798 35.5786L49.8286 33.622C49.9186 33.5699 49.9974 33.5003 50.0605 33.4171C50.1236 33.3339 50.1698 33.2388 50.1963 33.1374C50.2229 33.0359 50.2292 32.9302 50.2151 32.8262C50.2009 32.7223 50.1665 32.6223 50.1138 32.5319C50.0302 32.3736 49.893 32.2512 49.7274 32.1872L34.8234 26.1683C34.7274 26.1291 34.6247 26.1096 34.5213 26.1109C34.4178 26.1122 34.3156 26.1343 34.2206 26.1759C34.1256 26.2175 34.0397 26.2778 33.9679 26.3532C33.8961 26.4287 33.8398 26.5179 33.8022 26.6155C33.7614 26.7078 33.7402 26.8079 33.7402 26.909C33.7402 27.0102 33.7614 27.1102 33.8022 27.2025L39.7454 42.3056C39.7828 42.4032 39.8392 42.4922 39.9112 42.5674C39.9832 42.6426 40.0694 42.7024 40.1646 42.7432C40.2598 42.784 40.3622 42.8051 40.4656 42.8051C40.569 42.8052 40.6714 42.7842 40.7666 42.7435C40.9295 42.6797 41.0659 42.5613 41.153 42.408L43.085 39.0166L47.777 43.7683C47.9252 43.9168 48.1252 44.0001 48.3336 44.0001C48.5421 44.0001 48.7421 43.9168 48.8902 43.7683L51.1718 41.4484C51.2513 41.3742 51.3147 41.2842 51.3581 41.184C51.4014 41.0837 51.4238 40.9755 51.4238 40.8661C51.4238 40.7566 51.4014 40.6484 51.3581 40.5482C51.3147 40.4479 51.2513 40.3579 51.1718 40.2837Z" fill="#BFD5FF"/>
<path d="M16.6712 24.9013L15.098 19.7397C15.091 19.7059 15.091 19.671 15.098 19.6372C15.1003 19.571 15.1265 19.508 15.1716 19.4601C15.192 19.4366 15.2177 19.4185 15.2465 19.4071C15.2753 19.3958 15.3064 19.3916 15.3372 19.3949H16.1192C16.1893 19.3918 16.2581 19.4151 16.3124 19.4601C16.3626 19.496 16.3985 19.5489 16.4136 19.6092L17.49 23.2802L18.6216 19.6372C18.6496 19.5708 18.6902 19.5106 18.7412 19.4601C18.8019 19.4138 18.8769 19.3907 18.9528 19.3949H19.514C19.5929 19.3892 19.6712 19.4124 19.7348 19.4601C19.7869 19.5062 19.8225 19.5684 19.836 19.6372L20.986 23.2802L22.0532 19.6092C22.075 19.5522 22.1096 19.5011 22.1544 19.4601C22.2115 19.4136 22.2837 19.3904 22.3568 19.3949H23.1848C23.2153 19.3936 23.2458 19.3987 23.2744 19.4099C23.3029 19.4211 23.3287 19.4382 23.3504 19.4601C23.3744 19.4826 23.3934 19.5101 23.406 19.5406C23.4187 19.5711 23.4249 19.6041 23.424 19.6372V19.7397L21.8416 24.9293C21.8177 25.0081 21.7732 25.079 21.7128 25.1343C21.6505 25.1853 21.5721 25.2118 21.492 25.2088H20.7652C20.6808 25.2152 20.5971 25.1904 20.5294 25.139C20.4617 25.0876 20.4147 25.0131 20.3972 24.9293L19.2564 21.4167L18.1156 24.9293C18.0944 25.0129 18.0452 25.0865 17.9764 25.1375C17.9076 25.1885 17.8235 25.2137 17.7384 25.2088H17.0392C16.9513 25.2121 16.8653 25.1827 16.7974 25.126C16.7296 25.0693 16.6847 24.9894 16.6712 24.9013V24.9013Z" fill="white"/>
<path d="M26.386 24.9013L24.8128 19.7397C24.8059 19.7059 24.8059 19.671 24.8128 19.6372C24.8151 19.571 24.8413 19.508 24.8864 19.4601C24.9069 19.4366 24.9326 19.4185 24.9614 19.4071C24.9902 19.3958 25.0213 19.3916 25.052 19.3949H25.8892C25.9594 19.3918 26.0282 19.4151 26.0824 19.4601C26.1326 19.496 26.1685 19.5489 26.1836 19.6092L27.26 23.2802L28.3916 19.6372C28.4196 19.5708 28.4603 19.5106 28.5112 19.4601C28.5719 19.4138 28.6469 19.3907 28.7228 19.3949H29.284C29.363 19.3892 29.4413 19.4124 29.5048 19.4601C29.557 19.5062 29.5926 19.5684 29.606 19.6372L30.756 23.2802L31.8232 19.6092C31.845 19.5522 31.8797 19.5011 31.9244 19.4601C31.9815 19.4136 32.0537 19.3904 32.1268 19.3949H32.9548C32.9854 19.3936 33.0159 19.3987 33.0444 19.4099C33.0729 19.4211 33.0988 19.4382 33.1204 19.4601C33.1444 19.4826 33.1634 19.5101 33.1761 19.5406C33.1888 19.5711 33.1949 19.6041 33.194 19.6372V19.7397L31.6116 24.9293C31.5878 25.0081 31.5433 25.079 31.4828 25.1343C31.4206 25.1853 31.3421 25.2118 31.262 25.2088H30.5352C30.4509 25.2152 30.3671 25.1904 30.2994 25.139C30.2318 25.0876 30.1848 25.0131 30.1672 24.9293L28.9988 21.3888L27.858 24.9013C27.8368 24.985 27.7877 25.0585 27.7189 25.1095C27.6501 25.1605 27.5659 25.1857 27.4808 25.1808H26.7632C26.6778 25.1876 26.5927 25.1631 26.5235 25.1118C26.4543 25.0606 26.4056 24.9859 26.386 24.9013Z" fill="white"/>
<path d="M36.1023 24.9013L34.5199 19.7397C34.5129 19.7059 34.5129 19.671 34.5199 19.6372C34.5222 19.571 34.5483 19.508 34.5935 19.4601C34.6139 19.4366 34.6396 19.4185 34.6684 19.4071C34.6972 19.3958 34.7283 19.3916 34.7591 19.3949H35.5963C35.6664 19.3918 35.7352 19.4151 35.7895 19.4601C35.8397 19.496 35.8756 19.5489 35.8907 19.6092L36.9671 23.2802L38.0987 19.6372C38.1267 19.5708 38.1673 19.5106 38.2183 19.4601C38.279 19.4138 38.3539 19.3907 38.4299 19.3949H38.9911C39.07 19.3892 39.1483 19.4124 39.2119 19.4601C39.264 19.5062 39.2996 19.5684 39.3131 19.6372L40.4631 23.2802L41.5303 19.6092C41.552 19.5522 41.5867 19.5011 41.6315 19.4601C41.6886 19.4136 41.7607 19.3904 41.8339 19.3949H42.6619C42.6924 19.3936 42.7229 19.3987 42.7514 19.4099C42.7799 19.4211 42.8058 19.4382 42.8275 19.4601C42.8514 19.4826 42.8704 19.5101 42.8831 19.5406C42.8958 19.5711 42.9019 19.6041 42.9011 19.6372V19.7397L41.3187 24.9293C41.2948 25.0081 41.2503 25.079 41.1899 25.1343C41.1276 25.1853 41.0491 25.2118 40.9691 25.2088H40.2423C40.1579 25.2152 40.0741 25.1904 40.0065 25.139C39.9388 25.0876 39.8918 25.0131 39.8743 24.9293L38.7335 21.4167L37.5927 24.9293C37.5715 25.0129 37.5223 25.0865 37.4535 25.1375C37.3847 25.1885 37.3006 25.2137 37.2155 25.2088H36.4979C36.4054 25.2195 36.3125 25.1934 36.2387 25.136C36.1649 25.0787 36.116 24.9945 36.1023 24.9013V24.9013Z" fill="white"/>
</svg>
