<svg width="59" height="58" viewBox="0 0 59 58" fill="none" xmlns="http://www.w3.org/2000/svg">
<path d="M28.7705 11C33.677 11 38.3826 12.9491 41.852 16.4185C45.3214 19.8879 47.2705 24.5935 47.2705 29.5V29.5C47.2705 34.4065 45.3214 39.1121 41.852 42.5815C38.3826 46.0509 33.677 48 28.7705 48C23.864 48 19.1584 46.0509 15.689 42.5815C12.2196 39.1121 10.2705 34.4065 10.2705 29.5V29.5C10.2705 24.5935 12.2196 19.8879 15.689 16.4185C19.1584 12.9491 23.864 11 28.7705 11V11Z" fill="#BFD5FF"/>
<path d="M28.8105 36.0705C29.9372 36.0705 30.8505 35.1572 30.8505 34.0305C30.8505 32.9039 29.9372 31.9905 28.8105 31.9905C27.6838 31.9905 26.7705 32.9039 26.7705 34.0305C26.7705 35.1572 27.6838 36.0705 28.8105 36.0705Z" fill="#5D82D5"/>
<path d="M33.6802 29.1203L33.5902 29.0304L33.5002 28.9403C32.2348 27.7877 30.5743 27.1665 28.8631 27.2056C27.1519 27.2447 25.5215 27.9412 24.3102 29.1504L24.0202 29.4503L23.6102 29.8603C23.3702 30.1004 23.2354 30.4259 23.2354 30.7654C23.2354 31.1048 23.3702 31.4303 23.6102 31.6703C23.8464 31.906 24.1664 32.0384 24.5002 32.0384C24.8339 32.0384 25.1539 31.906 25.3902 31.6703L26.0902 30.9703C26.8617 30.2057 27.904 29.7768 28.9902 29.7768C30.0764 29.7768 31.1186 30.2057 31.8902 30.9703L32.4002 31.4604C32.5173 31.5786 32.6567 31.6724 32.8103 31.7364C32.9639 31.8005 33.1287 31.8335 33.2952 31.8335C33.4616 31.8335 33.6264 31.8005 33.78 31.7364C33.9336 31.6724 34.073 31.5786 34.1902 31.4604C34.309 31.3449 34.4032 31.2065 34.4668 31.0534C34.5304 30.9004 34.5622 30.736 34.5601 30.5703C34.5596 30.2364 34.4266 29.9162 34.1902 29.6803L33.6802 29.1203Z" fill="#5D82D5"/>
<path d="M37.1605 26.6004L36.7306 26.1704L36.3905 25.8304C36.3342 25.7721 36.2703 25.7216 36.2005 25.6804C34.1112 23.8499 31.4115 22.8693 28.6344 22.9323C25.8573 22.9952 23.2048 24.0972 21.2005 26.0204L21.1405 26.0804L20.3705 26.8404C20.2622 26.9494 20.1764 27.0787 20.118 27.2208C20.0596 27.363 20.0298 27.5152 20.0303 27.6689C20.0307 27.8226 20.0615 27.9747 20.1207 28.1165C20.18 28.2583 20.2665 28.3871 20.3755 28.4954C20.4845 28.6037 20.6138 28.6896 20.756 28.748C20.8981 28.8064 21.0504 28.8361 21.2041 28.8357C21.3578 28.8352 21.5098 28.8045 21.6516 28.7452C21.7935 28.686 21.9222 28.5994 22.0305 28.4904L22.7905 27.7304C24.4119 26.1698 26.5712 25.2922 28.8216 25.2792C31.0719 25.2661 33.2412 26.1187 34.8805 27.6604L35.4806 28.2604C35.7043 28.4529 35.9925 28.5538 36.2875 28.5428C36.5824 28.5317 36.8623 28.4096 37.071 28.2009C37.2797 27.9921 37.4018 27.7123 37.4129 27.4173C37.4239 27.1224 37.3231 26.8341 37.1305 26.6104L37.1605 26.6004Z" fill="#5D82D5"/>
</svg>
