<svg width="46" height="46" viewBox="0 0 46 46" fill="none" xmlns="http://www.w3.org/2000/svg">
<path d="M16.6574 11.897C17.5987 11.897 18.5188 12.1761 19.3014 12.699C20.084 13.2219 20.694 13.9652 21.0542 14.8348C21.4144 15.7044 21.5086 16.6612 21.325 17.5844C21.1414 18.5076 20.6881 19.3555 20.0226 20.0211C19.357 20.6867 18.509 21.1399 17.5859 21.3235C16.6627 21.5072 15.7058 21.4129 14.8362 21.0527C13.9666 20.6925 13.2234 20.0825 12.7005 19.2999C12.1775 18.5173 11.8984 17.5972 11.8984 16.656C11.8983 16.031 12.0213 15.4121 12.2604 14.8346C12.4996 14.2572 12.8501 13.7325 13.292 13.2906C13.734 12.8486 14.2586 12.4981 14.8361 12.259C15.4135 12.0198 16.0324 11.8968 16.6574 11.897Z" fill="#5482DB"/>
<path d="M16.6574 25.38C17.5987 25.38 18.5188 25.6591 19.3014 26.182C20.084 26.705 20.694 27.4482 21.0542 28.3178C21.4144 29.1874 21.5086 30.1443 21.325 31.0674C21.1414 31.9906 20.6881 32.8386 20.0226 33.5041C19.357 34.1697 18.509 34.6229 17.5859 34.8066C16.6627 34.9902 15.7058 34.8959 14.8362 34.5358C13.9666 34.1756 13.2234 33.5656 12.7005 32.783C12.1775 32.0003 11.8984 31.0802 11.8984 30.139C11.8983 29.514 12.0213 28.8951 12.2604 28.3177C12.4996 27.7402 12.8501 27.2155 13.292 26.7736C13.734 26.3317 14.2586 25.9811 14.8361 25.742C15.4135 25.5029 16.0324 25.3799 16.6574 25.38Z" fill="#5482DB"/>
<path d="M29.3449 11.897C30.2862 11.897 31.2063 12.1761 31.9889 12.699C32.7715 13.2219 33.3815 13.9652 33.7417 14.8348C34.1019 15.7044 34.1961 16.6612 34.0125 17.5844C33.8289 18.5076 33.3756 19.3555 32.7101 20.0211C32.0445 20.6867 31.1965 21.1399 30.2734 21.3235C29.3502 21.5072 28.3933 21.4129 27.5237 21.0527C26.6541 20.6925 25.9109 20.0825 25.388 19.2999C24.865 18.5173 24.5859 17.5972 24.5859 16.656C24.5858 16.031 24.7088 15.4121 24.9479 14.8346C25.1871 14.2572 25.5376 13.7325 25.9795 13.2906C26.4215 12.8486 26.9461 12.4981 27.5236 12.259C28.101 12.0198 28.7199 11.8968 29.3449 11.897Z" fill="#5482DB"/>
<path d="M29.3449 25.38C30.2862 25.38 31.2063 25.6591 31.9889 26.182C32.7715 26.705 33.3815 27.4482 33.7417 28.3178C34.1019 29.1874 34.1961 30.1443 34.0125 31.0674C33.8289 31.9906 33.3756 32.8386 32.7101 33.5041C32.0445 34.1697 31.1965 34.6229 30.2734 34.8066C29.3502 34.9902 28.3933 34.8959 27.5237 34.5358C26.6541 34.1756 25.9109 33.5656 25.388 32.783C24.865 32.0003 24.5859 31.0802 24.5859 30.139C24.5858 29.514 24.7088 28.8951 24.9479 28.3177C25.1871 27.7402 25.5376 27.2155 25.9795 26.7736C26.4215 26.3317 26.9461 25.9811 27.5236 25.742C28.101 25.5029 28.7199 25.3799 29.3449 25.38Z" fill="#BFD5FF"/>
</svg>
