<svg width="59" height="58" viewBox="0 0 59 58" fill="none" xmlns="http://www.w3.org/2000/svg">
<path d="M32.2705 8H13.2705C9.9568 8 7.27051 10.6863 7.27051 14V33C7.27051 36.3137 9.9568 39 13.2705 39H32.2705C35.5842 39 38.2705 36.3137 38.2705 33V14C38.2705 10.6863 35.5842 8 32.2705 8Z" fill="#5D82D5"/>
<path d="M25.2705 20H44.2705C45.8618 20 47.3879 20.6322 48.5132 21.7574C49.6384 22.8826 50.2705 24.4087 50.2705 26V45C50.2705 46.5913 49.6384 48.1174 48.5132 49.2426C47.3879 50.3678 45.8618 51 44.2705 51H25.2705C23.6792 51 22.1531 50.3678 21.0279 49.2426C19.9026 48.1174 19.2705 46.5913 19.2705 45V26C19.2705 24.4087 19.9026 22.8826 21.0279 21.7574C22.1531 20.6322 23.6792 20 25.2705 20V20Z" fill="#BFD5FF"/>
<path d="M28.1509 27.6501C27.4977 27.6792 26.8797 27.9543 26.4209 28.4201C26.2128 28.6255 26.0501 28.8722 25.9433 29.1443C25.8365 29.4165 25.788 29.708 25.8009 30.0001C25.8009 30.4649 25.9387 30.9193 26.1969 31.3057C26.4551 31.6922 26.8221 31.9934 27.2516 32.1713C27.681 32.3491 28.1535 32.3957 28.6093 32.305C29.0652 32.2143 29.4839 31.9905 29.8126 31.6618C30.1412 31.3332 30.365 30.9144 30.4557 30.4586C30.5464 30.0027 30.4999 29.5302 30.322 29.1008C30.1441 28.6714 29.8429 28.3044 29.4564 28.0461C29.07 27.7879 28.6157 27.6501 28.1509 27.6501V27.6501Z" fill="white"/>
<path d="M40.2705 33.2901C40.1764 33.0927 40.0442 32.916 39.8815 32.7699C39.7188 32.6238 39.5289 32.5113 39.3226 32.4388C39.1163 32.3663 38.8978 32.3353 38.6795 32.3476C38.4612 32.3598 38.2474 32.415 38.0505 32.5101C37.8208 32.62 37.619 32.7807 37.4605 32.9801L35.4605 35.9801C35.3471 36.1543 35.2005 36.3045 35.029 36.422C34.8575 36.5394 34.6644 36.6219 34.461 36.6647C34.2575 36.7074 34.0477 36.7095 33.8434 36.671C33.6391 36.6325 33.4444 36.554 33.2705 36.4401C33.0887 36.3182 32.9324 36.1619 32.8105 35.9801L32.1905 35.2101C32.0629 35.0421 31.9033 34.901 31.721 34.795C31.5386 34.6889 31.3371 34.6199 31.1279 34.592C30.9188 34.5641 30.7062 34.5779 30.5025 34.6325C30.2987 34.6871 30.1077 34.7814 29.9405 34.9101C29.7793 35.0327 29.6434 35.1855 29.5405 35.3601L26.0505 40.8501C25.9339 41.0297 25.854 41.2306 25.8155 41.4413C25.777 41.6519 25.7806 41.8681 25.8262 42.0773C25.8717 42.2865 25.9583 42.4847 26.081 42.6603C26.2036 42.8358 26.3598 42.9853 26.5405 43.1001C26.8152 43.282 27.1416 43.3697 27.4705 43.3501H42.1905C42.4096 43.3374 42.6239 43.2814 42.8212 43.1853C43.0184 43.0893 43.1946 42.9551 43.3397 42.7905C43.4848 42.6259 43.5958 42.4342 43.6663 42.2264C43.7368 42.0187 43.7654 41.799 43.7505 41.5801C43.7396 41.3831 43.6922 41.1898 43.6105 41.0101L40.2705 33.2901Z" fill="white"/>
</svg>
