<svg width="59" height="58" viewBox="0 0 59 58" fill="none" xmlns="http://www.w3.org/2000/svg">
<path d="M34.2705 14H15.2705C11.9568 14 9.27051 16.6863 9.27051 20V39C9.27051 42.3137 11.9568 45 15.2705 45H34.2705C37.5842 45 40.2705 42.3137 40.2705 39V20C40.2705 16.6863 37.5842 14 34.2705 14Z" fill="#BFD5FF"/>
<path d="M28.2705 24H47.2705C48.8618 24 50.3879 24.6321 51.5131 25.7574C52.6384 26.8826 53.2705 28.4087 53.2705 30V34C53.2705 35.5913 52.6384 37.1174 51.5131 38.2426C50.3879 39.3679 48.8618 40 47.2705 40H28.2705C26.6792 40 25.1531 39.3679 24.0279 38.2426C22.9026 37.1174 22.2705 35.5913 22.2705 34V30C22.2705 28.4087 22.9026 26.8826 24.0279 25.7574C25.1531 24.6321 26.6792 24 28.2705 24V24Z" fill="#5D82D5"/>
<path d="M27.5003 35.9199C27.4731 35.8923 27.452 35.8594 27.4383 35.8233C27.4245 35.7871 27.4184 35.7485 27.4202 35.7099V27.8999C27.414 27.8608 27.4168 27.8208 27.4283 27.783C27.4399 27.7451 27.4599 27.7104 27.4869 27.6815C27.5139 27.6525 27.5472 27.6301 27.5842 27.616C27.6211 27.6019 27.6608 27.5964 27.7002 27.5999H30.9202C31.7363 27.5534 32.543 27.794 33.2002 28.2799C33.4826 28.5274 33.7043 28.8364 33.8482 29.1832C33.9921 29.53 34.0544 29.9052 34.0302 30.2799C34.0599 30.6552 34.0002 31.0321 33.8559 31.3798C33.7116 31.7274 33.4869 32.0359 33.2002 32.2799C32.5381 32.7543 31.7334 32.9872 30.9202 32.9399H29.1603V35.7499C29.1622 35.7895 29.1552 35.8289 29.1396 35.8653C29.124 35.9017 29.1003 35.9341 29.0703 35.9599C29.0133 36.0128 28.938 36.0415 28.8603 36.0399H27.7002C27.6606 36.0343 27.6225 36.0208 27.5881 36.0001C27.5538 35.9795 27.5239 35.9523 27.5003 35.9199V35.9199ZM30.8602 31.5599C31.2424 31.5865 31.6207 31.4688 31.9202 31.2299C32.0536 31.1021 32.1562 30.9457 32.2203 30.7725C32.2844 30.5992 32.3083 30.4137 32.2903 30.2299C32.3047 30.0472 32.2801 29.8635 32.218 29.6911C32.1559 29.5187 32.0579 29.3615 31.9303 29.2299C31.7836 29.1041 31.6137 29.0085 31.4301 28.9484C31.2465 28.8884 31.0529 28.8651 30.8602 28.8799H29.1303V31.4999L30.8602 31.5599Z" fill="white"/>
<path d="M35.4202 35.9197C35.393 35.8921 35.3719 35.8592 35.3582 35.823C35.3444 35.7869 35.3383 35.7483 35.3402 35.7097V27.8997C35.3339 27.8606 35.3367 27.8206 35.3482 27.7827C35.3598 27.7449 35.3798 27.7102 35.4068 27.6812C35.4338 27.6523 35.4671 27.6299 35.5041 27.6158C35.541 27.6016 35.5808 27.5961 35.6202 27.5997H38.5502C40.9102 27.5997 42.1202 28.6897 42.1602 30.8597C42.1602 31.3297 42.1602 31.6397 42.1602 31.7997C42.1602 31.9597 42.1602 32.2597 42.1602 32.7197C42.1847 33.1723 42.1176 33.6253 41.9629 34.0514C41.8083 34.4775 41.5693 34.8681 41.2602 35.1997C40.5088 35.79 39.5627 36.0757 38.6102 35.9997H35.6102C35.5394 35.9963 35.4721 35.968 35.4202 35.9197V35.9197ZM38.5502 34.6097C38.8081 34.6346 39.0684 34.6077 39.3157 34.5304C39.563 34.4531 39.7924 34.327 39.9902 34.1597C40.3295 33.7481 40.4978 33.2218 40.4602 32.6897C40.4602 32.2097 40.4602 31.9097 40.4602 31.7897C40.4602 31.6697 40.4602 31.3597 40.4602 30.8997C40.5007 30.6315 40.476 30.3575 40.3883 30.1009C40.3006 29.8442 40.1524 29.6125 39.9563 29.4251C39.7602 29.2378 39.5218 29.1005 39.2614 29.0247C39.001 28.9489 38.7262 28.9369 38.4602 28.9897H37.0002V34.6097H38.5502Z" fill="white"/>
<path d="M43.8605 35.9199C43.8321 35.8928 43.8095 35.8602 43.794 35.8241C43.7785 35.788 43.7705 35.7491 43.7705 35.7099V27.8999C43.7694 27.8192 43.7979 27.741 43.8505 27.6799C43.8785 27.6532 43.9114 27.6325 43.9475 27.6187C43.9835 27.605 44.022 27.5986 44.0605 27.5999H49.2705C49.3107 27.5969 49.351 27.6026 49.3888 27.6166C49.4265 27.6306 49.4608 27.6527 49.4893 27.6811C49.5178 27.7096 49.5398 27.7439 49.5538 27.7816C49.5678 27.8194 49.5735 27.8597 49.5705 27.8999V28.7599C49.5701 28.8373 49.5417 28.9119 49.4905 28.9699C49.4294 29.0225 49.3512 29.051 49.2705 29.0499H45.4305V31.3099H49.0305C49.1112 31.3088 49.1894 31.3372 49.2505 31.3899C49.3017 31.4479 49.3301 31.5225 49.3305 31.5999V32.4599C49.3311 32.4968 49.3243 32.5336 49.3105 32.5679C49.2968 32.6022 49.2764 32.6335 49.2505 32.6599C49.2223 32.6896 49.1881 32.7129 49.1502 32.7285C49.1123 32.744 49.0715 32.7513 49.0305 32.7499H45.4305V35.7499C45.4301 35.8273 45.4017 35.9018 45.3505 35.9599C45.2894 36.0125 45.2112 36.041 45.1305 36.0399H44.0505C44.0123 36.0341 43.9757 36.0204 43.943 35.9998C43.9103 35.9791 43.8822 35.9519 43.8605 35.9199V35.9199Z" fill="white"/>
</svg>
