<svg width="58" height="58" viewBox="0 0 58 58" fill="none" xmlns="http://www.w3.org/2000/svg">
<path d="M29 11H17C13.6863 11 11 13.6137 11 16.8378V41.1622C11 44.3863 13.6863 47 17 47H29C32.3137 47 35 44.3863 35 41.1622V16.8378C35 13.6137 32.3137 11 29 11Z" fill="#5D82D5"/>
<path d="M30.3696 17.75H41.1304C42.6871 17.75 44.1801 18.3684 45.2808 19.4692C46.3816 20.5699 47 22.0629 47 23.6196V34.3804C47 35.9371 46.3816 37.4301 45.2808 38.5308C44.1801 39.6316 42.6871 40.25 41.1304 40.25H30.3696C28.8129 40.25 27.3199 39.6316 26.2192 38.5308C25.1184 37.4301 24.5 35.9371 24.5 34.3804V23.6196C24.5 22.0629 25.1184 20.5699 26.2192 19.4692C27.3199 18.3684 28.8129 17.75 30.3696 17.75Z" fill="#BFD5FF"/>
<path d="M38.1839 29.8758C37.4799 30.5608 37.4799 31.236 36.7859 31.236C36.092 31.236 35.3879 30.551 34.6839 29.8758C33.9799 29.2006 33.296 28.5156 33.296 27.8306C33.296 27.1456 34 27.1456 34.694 26.4704C35.3879 25.7952 33.296 23.75 32.602 23.75C31.908 23.75 30.5 25.7854 30.5 25.7854C30.5 27.1554 31.9382 29.915 33.296 31.236C34.6537 32.5571 37.5 33.9662 38.898 33.9662C38.898 33.9662 41 32.606 41 31.921C41 31.236 38.898 29.2006 38.194 29.8758H38.1839Z" fill="white"/>
</svg>
