<svg width="40" height="40" viewBox="0 0 40 40" fill="none" xmlns="http://www.w3.org/2000/svg">
<path d="M36.6667 19.9843C36.6758 29.1885 29.22 36.6577 20.0158 36.6668C10.8117 36.676 3.34249 29.2202 3.33332 20.016C3.32415 10.8118 10.78 3.34267 19.9842 3.3335C29.1883 3.32434 36.6575 10.7802 36.6667 19.9843Z" fill="#03A9F4"/>
<path d="M28.9971 14.7144C28.3356 15.0073 27.6242 15.2028 26.8737 15.2953C27.6367 14.8423 28.2236 14.1199 28.4991 13.2665C27.7852 13.6849 26.9942 13.9924 26.1528 14.1544C25.4809 13.442 24.5224 13 23.4605 13C21.4207 13 19.7673 14.6389 19.7673 16.6597C19.7673 16.9457 19.8008 17.2241 19.8638 17.4946C16.7951 17.3406 14.0733 15.8818 12.2525 13.6679C11.9325 14.2089 11.7525 14.8423 11.7525 15.5108C11.7525 16.7812 12.403 17.8996 13.3949 18.5585C12.7894 18.54 12.2195 18.3716 11.7205 18.1016C11.7205 18.1126 11.7205 18.1291 11.7205 18.1446C11.7205 19.9199 12.9939 21.3983 14.6818 21.7348C14.3733 21.8193 14.0473 21.8663 13.7113 21.8663C13.4729 21.8663 13.2404 21.8393 13.0154 21.7988C13.4854 23.2496 14.8487 24.3101 16.4641 24.3416C15.2002 25.3215 13.6084 25.9084 11.8775 25.9084C11.5785 25.9084 11.286 25.8914 10.9971 25.8564C12.6324 26.8918 14.5743 27.4988 16.6586 27.4988C23.4505 27.4988 27.1662 21.9213 27.1662 17.0827C27.1662 16.9242 27.1612 16.7662 27.1537 16.6102C27.8787 16.0982 28.5036 15.4523 28.9971 14.7144Z" fill="white"/>
</svg>
